HIERARCHY
ROOT Hips
{
    OFFSET 0.000000 0.000000 0.000000
    CHANNELS 6 Xposition Yposition Zposition Zrotation Xrotation Yrotation
    JOINT Spine
    {
        OFFSET -0.000000 14.517291 0.000000
        CHANNELS 3 Zrotation Xrotation Yrotation
        JOINT Spine1
        {
            OFFSET -0.000000 37.558300 0.000000
            CHANNELS 3 Zrotation Xrotation Yrotation
            JOINT Neck
            {
                OFFSET -0.000000 37.404057 3.400369
                CHANNELS 3 Zrotation Xrotation Yrotation
                JOINT Head
                {
                    OFFSET -0.000000 24.785618 -3.540803
                    CHANNELS 3 Zrotation Xrotation Yrotation
                    End Site
                    {
                        OFFSET -0.000000 35.408028 0.000000
                    }
                }
            }
            JOINT LeftShoulder
            {
                OFFSET 6.992933 33.973492 -0.192664
                CHANNELS 3 Zrotation Xrotation Yrotation
                JOINT LeftArm
                {
                    OFFSET 21.527611 0.000000 0.000000
                    CHANNELS 3 Zrotation Xrotation Yrotation
                    JOINT LeftForeArm
                    {
                        OFFSET 56.353916 0.000000 0.000000
                        CHANNELS 3 Zrotation Xrotation Yrotation
                        JOINT LeftHand
                        {
                            OFFSET 47.774071 0.000000 0.000000
                            CHANNELS 3 Zrotation Xrotation Yrotation
                            End Site
                            {
                                OFFSET 26.556021 0.000000 0.000000
                            }
                        }
                    }
                }
            }
            JOINT RightShoulder
            {
                OFFSET -7.065357 33.973492 -0.192664
                CHANNELS 3 Zrotation Xrotation Yrotation
                JOINT RightArm
                {
                    OFFSET -21.527611 0.000000 0.000000
                    CHANNELS 3 Zrotation Xrotation Yrotation
                    JOINT RightForeArm
                    {
                        OFFSET -56.353916 0.000000 0.000000
                        CHANNELS 3 Zrotation Xrotation Yrotation
                        JOINT RightHand
                        {
                            OFFSET -47.774071 0.000000 0.000000
                            CHANNELS 3 Zrotation Xrotation Yrotation
                            End Site
                            {
                                OFFSET -26.556021 0.000000 0.000000
                            }
                        }
                    }
                }
            }
        }
    }
    JOINT LeftUpLeg
    {
        OFFSET 17.704014 0.000000 0.000000
        CHANNELS 3 Zrotation Xrotation Yrotation
        JOINT LeftLeg
        {
            OFFSET -0.000000 -81.181816 0.000000
            CHANNELS 3 Zrotation Xrotation Yrotation
            JOINT LeftFoot
            {
                OFFSET -0.000000 -62.821102 0.000000
                CHANNELS 3 Zrotation Xrotation Yrotation
                JOINT LeftToeBase
                {
                    OFFSET -0.000000 -11.507608 26.556021
                    CHANNELS 3 Zrotation Xrotation Yrotation
                    End Site
                    {
                        OFFSET -0.000000 0.000000 7.081605
                    }
                }
            }
        }
    }
    JOINT RightUpLeg
    {
        OFFSET -17.704014 0.000000 0.000000
        CHANNELS 3 Zrotation Xrotation Yrotation
        JOINT RightLeg
        {
            OFFSET -0.000000 -81.181816 0.000000
            CHANNELS 3 Zrotation Xrotation Yrotation
            JOINT RightFoot
            {
                OFFSET -0.000000 -62.821102 0.000000
                CHANNELS 3 Zrotation Xrotation Yrotation
                JOINT RightToeBase
                {
                    OFFSET -0.000000 -11.507608 26.556021
                    CHANNELS 3 Zrotation Xrotation Yrotation
                    End Site
                    {
                        OFFSET -0.000000 0.000000 7.081605
                    }
                }
            }
        }
    }
}
MOTION
Frames:    11
Frame Time:    0.008333
-9.480533    157.685440    -94.006775    -1.109938    -5.796449    43.996235    -3.353725    -2.282121    -6.159832    -1.426208    4.123088    -1.975806    4.947890    -12.883160    -11.959311    7.422355    10.815050    -13.413283    17.249580    -13.593576    -29.013762    -46.142841    -17.053989    -98.039490    18.020458    -62.509331    -105.212608    -15.792726    -46.330261    -29.276209    -13.147442    -8.053846    -3.127326    18.344479    -24.778275    60.142090    -6.906830    -1.089082    21.792500    -7.356430    -2.239898    37.244812    20.881437    3.931408    -1.509900    -9.797193    22.937422    -19.049654    -2.595554    -24.134256    42.061054    0.000000    0.000000    0.000000    -11.780810    -13.642328    -18.632580    4.781949    14.760339    -18.319046    6.071694    10.915548    -9.280834    0.000000    0.000000    0.000000    
-9.467467    157.687347    -94.032036    -1.105072    -5.778689    44.003300    -3.353200    -2.274861    -6.181026    -1.456467    4.107363    -1.982043    4.958786    -12.906816    -11.959028    7.408997    10.851198    -13.419888    17.225468    -13.505781    -29.022160    -46.156017    -17.002119    -98.049316    18.323505    -62.638897    -104.950592    -15.825086    -46.302643    -29.326704    -13.157362    -8.030182    -3.123584    18.339626    -24.772369    60.139385    -6.949308    -1.219510    21.832390    -7.268332    -2.330186    37.247459    20.861006    3.913958    -1.485631    -9.797281    22.945608    -19.070269    -2.597481    -24.136820    42.062496    0.000000    0.000000    0.000000    -11.804324    -13.654883    -18.627811    4.781312    14.749856    -18.340719    6.051025    10.952060    -9.288164    0.000000    0.000000    0.000000    
-9.444072    157.691162    -94.047997    -1.101582    -5.763336    44.018173    -3.349982    -2.277550    -6.203455    -1.484805    4.102697    -1.988587    4.925243    -12.918127    -11.986269    7.459921    10.863598    -13.438550    17.202908    -13.420529    -29.042274    -46.177269    -16.954865    -98.054054    18.607906    -62.741241    -104.710144    -15.743181    -46.275349    -29.310324    -13.168596    -8.039828    -3.131179    18.339874    -24.741693    60.135651    -6.996590    -1.297292    21.882429    -7.265466    -2.393208    37.236473    20.841255    3.905394    -1.448592    -9.784334    22.942881    -19.092810    -2.607144    -24.112602    42.022087    0.000000    0.000000    0.000000    -11.829967    -13.655633    -18.622637    4.784420    14.748471    -18.360857    6.070964    10.959390    -9.304873    0.000000    0.000000    0.000000    
-9.427768    157.692032    -94.073486    -1.092617    -5.735486    44.014324    -3.363776    -2.272836    -6.211607    -1.514205    4.096540    -1.990271    4.952667    -12.967986    -11.980353    7.430475    10.892828    -13.445021    17.178146    -13.332058    -29.049536    -46.155415    -16.898312    -98.075684    18.793295    -62.848778    -104.533852    -15.747351    -46.309105    -29.367140    -13.164493    -8.049609    -3.159665    18.364904    -24.736122    60.168755    -7.036639    -1.322419    21.921085    -7.243656    -2.398776    37.217049    20.802406    3.899799    -1.403798    -9.768693    22.934944    -19.128807    -2.596548    -24.108164    42.024940    0.000000    0.000000    0.000000    -11.862626    -13.682445    -18.632429    4.766808    14.767474    -18.344347    6.068375    10.965311    -9.299589    0.000000    0.000000    0.000000    
-9.409528    157.698471    -94.090355    -1.087262    -5.718687    44.014683    -3.380476    -2.267478    -6.220533    -1.519825    4.090304    -1.993075    4.908987    -12.988441    -12.011939    7.493289    10.916394    -13.466168    17.117302    -13.222208    -29.087988    -46.088940    -16.859545    -98.090004    18.897972    -62.954155    -104.412628    -15.713043    -46.413418    -29.367401    -13.180435    -8.038735    -3.177403    18.390562    -24.734648    60.187111    -7.098871    -1.323368    21.965504    -7.240021    -2.383984    37.205082    20.773428    3.901404    -1.379123    -9.753635    22.918159    -19.133318    -2.607830    -24.094299    42.013596    0.000000    0.000000    0.000000    -11.885415    -13.687073    -18.605949    4.773765    14.756351    -18.392498    6.066465    10.979379    -9.275314    0.000000    0.000000    0.000000    
-9.394919    157.704346    -94.104820    -1.088682    -5.706972    44.007568    -3.389103    -2.260137    -6.229519    -1.529589    4.085070    -1.995822    4.862214    -13.012299    -12.038069    7.569580    10.935420    -13.480057    17.071640    -13.115689    -29.111328    -46.116669    -16.830614    -98.146011    16.343939    -63.109722    -106.569489    -17.008581    -48.138103    -29.933035    -13.185869    -8.040344    -3.188855    18.414177    -24.732985    60.200611    -7.157738    -1.288767    22.020441    -7.283041    -2.351445    37.246666    20.755890    3.903728    -1.349586    -9.741450    22.901974    -19.146412    -2.608126    -24.085020    42.009727    0.000000    0.000000    0.000000    -11.893261    -13.689823    -18.579447    4.773500    14.731098    -18.412571    6.063878    11.006263    -9.283365    0.000000    0.000000    0.000000    
-9.382954    157.709396    -94.117844    -1.092873    -5.690829    43.998390    -3.402645    -2.259762    -6.230924    -1.548887    4.086060    -1.995475    4.858217    -13.011597    -12.057578    7.619640    10.900391    -13.494759    17.060137    -13.034310    -29.136297    -46.078945    -16.606165    -98.029800    15.810685    -62.917221    -106.849594    -17.167812    -48.018841    -32.106632    -13.180082    -8.044644    -3.198033    18.436087    -24.750858    60.197193    -7.188077    -1.229067    22.081789    -7.332200    -2.301660    37.286167    20.733606    3.897150    -1.343209    -9.727322    22.893831    -19.134369    -2.627841    -24.088388    41.995182    0.000000    0.000000    0.000000    -11.902235    -13.705140    -18.553762    4.771612    14.723030    -18.429743    6.073183    11.016470    -9.290087    0.000000    0.000000    0.000000    
-9.373285    157.715897    -94.131897    -1.106427    -5.679338    43.985287    -3.408300    -2.251906    -6.228266    -1.555427    4.070428    -1.994588    4.838245    -12.999662    -12.089520    7.678418    10.856490    -13.516720    17.141886    -13.124589    -29.182222    -46.376858    -16.646688    -98.016716    16.203266    -63.030533    -106.703926    -16.883602    -48.148945    -29.851208    -13.179722    -8.047900    -3.207231    18.425932    -24.744530    60.182045    -7.233554    -1.170884    22.138811    -7.377932    -2.247522    37.305237    20.723442    3.881982    -1.363343    -9.732492    22.894566    -19.107635    -2.609737    -24.070656    42.003784    0.000000    0.000000    0.000000    -11.900228    -13.721049    -18.532032    4.768147    14.708124    -18.431408    6.082385    11.044247    -9.304585    0.000000    0.000000    0.000000    
-9.363542    157.721054    -94.140327    -1.121565    -5.676393    43.969196    -3.404280    -2.248686    -6.228269    -1.573853    4.074445    -1.993924    4.840153    -13.002006    -12.114176    7.715215    10.815851    -13.538635    17.166800    -13.064012    -29.201864    -46.365517    -16.599005    -97.958771    16.376009    -63.086193    -106.496635    -16.823601    -48.140224    -29.807085    -13.176002    -8.048029    -3.220783    18.406881    -24.727345    60.175117    -7.296388    -1.125527    22.186632    -7.400378    -2.196142    37.329193    20.722904    3.870933    -1.386378    -9.743087    22.899410    -19.087206    -2.606068    -24.085403    42.041271    0.000000    0.000000    0.000000    -11.887100    -13.725578    -18.517027    4.763328    14.678395    -18.461964    6.083407    11.077009    -9.283150    0.000000    0.000000    0.000000    
-9.352386    157.728073    -94.143082    -1.138909    -5.679868    43.964050    -3.404261    -2.240475    -6.224344    -1.570664    4.066330    -1.992953    4.792640    -12.924206    -12.153619    7.816571    10.688377    -13.550523    17.178808    -12.974742    -29.234171    -46.344044    -16.373785    -97.801796    16.084970    -62.917469    -106.495186    -17.032295    -47.889591    -32.034283    -13.186726    -8.044350    -3.225320    18.377653    -24.707075    60.145081    -7.336952    -1.097639    22.228802    -7.387516    -2.154933    37.353798    20.731361    3.856846    -1.438018    -9.757383    22.904865    -19.044561    -2.614602    -24.079075    42.051254    0.000000    0.000000    0.000000    -11.871207    -13.718126    -18.515060    4.763181    14.643911    -18.450470    6.081233    11.106079    -9.293276    0.000000    0.000000    0.000000    
-9.342754    157.730331    -94.146133    -1.157785    -5.682496    43.950756    -3.391568    -2.235645    -6.216806    -1.588346    4.060152    -1.990050    4.791193    -12.825808    -12.176313    7.869144    10.518055    -13.555305    17.194338    -12.858635    -29.257845    -46.303860    -16.330482    -97.746552    16.522312    -63.017357    -105.948448    -17.111542    -47.738316    -32.218361    -13.193746    -8.034431    -3.225589    18.306517    -24.654556    60.093445    -7.420525    -1.094989    22.266417    -7.401938    -2.137654    37.347584    20.740580    3.844911    -1.486323    -9.771554    22.911591    -19.017683    -2.602777    -24.089499    42.082954    0.000000    0.000000    0.000000    -11.854767    -13.723228    -18.501274    4.761909    14.627254    -18.464798    6.073594    11.122896    -9.266937    0.000000    0.000000    0.000000    
